<?xml version="1.0" encoding="UTF-8"?>
<!DOCTYPE svg PUBLIC "-//W3C//DTD SVG 1.1//EN" "http://www.w3.org/Graphics/SVG/1.1/DTD/svg11.dtd">
<!-- Creator: CorelDRAW X7 -->
<svg xmlns="http://www.w3.org/2000/svg" xml:space="preserve" width="2.58563in" height="2.64609in" version="1.1" style="shape-rendering:geometricPrecision; text-rendering:geometricPrecision; image-rendering:optimizeQuality; fill-rule:evenodd; clip-rule:evenodd"
viewBox="0 0 298 305"
 xmlns:xlink="http://www.w3.org/1999/xlink">
 <defs>
  <style type="text/css">
   <![CDATA[
    .fil13 {fill:#BDBFC1;fill-rule:nonzero}
    .fil12 {fill:#96989A;fill-rule:nonzero}
    .fil16 {fill:#848688;fill-rule:nonzero}
    .fil17 {fill:#606062;fill-rule:nonzero}
    .fil5 {fill:#4B4B4D;fill-rule:nonzero}
    .fil3 {fill:#373435;fill-rule:nonzero}
    .fil18 {fill:#373435;fill-rule:nonzero}
    .fil14 {fill:#258036;fill-rule:nonzero}
    .fil2 {fill:#2C2858;fill-rule:nonzero}
    .fil9 {fill:#2E2A61;fill-rule:nonzero}
    .fil15 {fill:#3F964F;fill-rule:nonzero}
    .fil11 {fill:#7782BC;fill-rule:nonzero}
    .fil4 {fill:#95A6DB;fill-rule:nonzero}
    .fil7 {fill:#AA534D;fill-rule:nonzero}
    .fil6 {fill:#ADB2D5;fill-rule:nonzero}
    .fil8 {fill:#B8635B;fill-rule:nonzero}
    .fil10 {fill:#C1C0D5;fill-rule:nonzero}
    .fil1 {fill:#DE623C;fill-rule:nonzero}
    .fil0 {fill:#F37A50;fill-rule:nonzero}
   ]]>
  </style>
 </defs>
 <g id="Layer_x0020_1">
  <metadata id="CorelCorpID_0Corel-Layer"/>
  <g id="_1397809882176">
   <path class="fil0" d="M51 109c0,0 -7,-3 -17,-7 -4,-1 -7,-3 -10,-4 -16,-7 -29,-12 -22,-28 4,-10 14,-9 23,-6 6,2 11,5 13,7l13 38z"/>
   <path class="fil1" d="M34 102c0,-19 -6,-32 -9,-38 6,2 11,5 13,7l13 38c0,0 -7,-3 -17,-7z"/>
   <polygon class="fil1" points="196,153 148,112 147,225 204,180 "/>
   <path class="fil0" d="M298 275l0 30 -82 0 -5 -16c-9,-4 -17,-6 -28,-15 -12,-9 -26,-13 -27,-15 -13,-36 26,-69 33,-84 0,-1 0,-1 1,-2 6,-15 2,-33 -3,-43 -2,-4 -5,-10 -6,-14 -5,-24 9,-46 25,-39 9,3 2,32 21,51 21,20 42,56 38,104 6,7 19,24 33,43z"/>
   <path class="fil1" d="M176 268c-14,-6 -18,-10 -19,-12 -14,-36 25,-69 33,-84 0,0 0,-1 0,-1 -2,11 -4,25 -6,39 -1,9 4,37 8,43 -4,7 -6,9 -16,15z"/>
   <path class="fil2" d="M156 276l-91 0c-15,0 -27,-12 -27,-26l0 -224c0,-14 12,-26 26,-26l92 0c14,0 26,12 26,26l0 223c0,15 -12,27 -26,27z"/>
   <path class="fil3" d="M156 268l-91 0c-10,0 -18,-8 -18,-18l0 -223c0,-10 8,-18 18,-18l90 0c10,0 18,8 18,18l1 223c0,10 -8,18 -18,18z"/>
   <path class="fil4" d="M126 244c0,-8 -7,-16 -16,-16 -9,0 -16,8 -16,16 0,9 7,16 16,16 9,0 16,-7 16,-16z"/>
   <path class="fil5" d="M126 244c0,-8 -7,-16 -16,-16 -9,0 -16,8 -16,16 0,9 7,16 16,16 9,0 16,-7 16,-16z"/>
   <path class="fil5" d="M156 18l-11 0 0 2c0,4 -3,8 -7,8l-53 0c-4,0 -7,-4 -7,-8l0 -2 -14 0c-6,0 -11,5 -11,11l0 181c0,6 5,11 11,11l93 0c6,0 10,-5 10,-11l0 -181c0,-6 -5,-11 -11,-11z"/>
   <path class="fil5" d="M132 23l-44 0c-1,0 -3,-1 -3,-2 0,-2 2,-3 3,-3l44 0c2,0 3,1 3,3 0,1 -1,2 -3,2z"/>
   <path class="fil0" d="M34 111c-5,-2 -16,-1 -20,10 -5,16 3,17 13,24 10,6 21,9 28,-1 7,-10 2,-21 -5,-25 -7,-4 -12,-6 -16,-8z"/>
   <path class="fil0" d="M16 163c-6,8 -4,20 10,27 14,8 27,10 32,-3 5,-13 -3,-20 -14,-26 -10,-6 -20,-7 -28,2z"/>
   <path class="fil0" d="M19 216c-3,8 2,18 16,20 13,2 23,3 25,-11 1,-11 -12,-16 -19,-17 -7,-2 -19,-4 -22,8z"/>
   <path class="fil1" d="M47 123c-2,-1 -5,-2 -7,-2 -4,0 -5,0 -7,2 -2,2 -3,4 -4,7 -1,2 -1,4 0,6 1,1 1,2 2,3 2,2 4,3 6,5 -2,-1 -5,-3 -7,-4 -1,-1 -2,-3 -2,-4 -1,0 -1,-1 -1,-1 0,-1 0,-4 0,-6 1,-3 3,-5 5,-7 2,-2 4,-3 8,-2 3,0 5,2 7,3z"/>
   <path class="fil1" d="M52 174c-3,-1 -6,-3 -9,-4 -3,-1 -6,-2 -8,0 -2,2 -4,5 -4,8 -1,3 0,5 2,8 2,3 6,5 10,6 -3,0 -8,-1 -11,-5 -1,-1 -1,-1 -1,-1 -2,-3 -2,-6 -2,-9 1,-3 3,-6 5,-8 2,-2 5,-3 10,0 3,1 6,3 8,5z"/>
   <path class="fil1" d="M52 218c-3,-1 -8,-1 -11,-1 -4,0 -4,1 -5,2 -1,1 -1,3 -1,5 0,4 3,6 6,8 2,1 5,1 8,1 -3,1 -6,1 -9,0 -4,-2 -6,-4 -7,-8 0,-3 0,-5 2,-7 0,-2 1,-3 6,-3 4,1 9,2 11,3z"/>
   <path class="fil1" d="M216 109c-1,1 -3,2 -4,2 -1,0 -2,0 -3,-1 0,0 0,0 -1,0 0,0 0,0 0,0 0,0 0,0 -1,0 0,-1 -1,-1 -1,-2 -1,0 -1,-1 -2,-2 0,0 0,0 0,-1 0,0 -1,0 -1,0 0,-1 0,-2 -1,-2 0,-2 -1,-3 -1,-4 -1,-2 -1,-3 -1,-4 -1,-2 -1,-3 -1,-4 -1,-2 -1,-3 -1,-4 1,2 2,5 3,7 0,2 1,3 1,4 1,1 1,3 2,4 1,1 1,2 2,3 1,1 1,2 2,3 1,1 3,1 4,1 0,1 0,1 1,1 0,0 0,0 0,0 0,0 1,0 1,0 0,0 1,-1 2,-1z"/>
   <path class="fil6" d="M191 149l1 0c-1,-7 -3,-14 -5,-19 -2,-3 -4,-8 -5,-12l0 23 9 8zm39 -18l0 -23c0,-5 -4,-9 -9,-9l-8 0c2,9 5,20 14,29 1,1 2,2 3,3z"/>
   <polygon class="fil7" points="191,149 182,149 182,141 "/>
   <path class="fil8" d="M221 149l-29 0c-1,-7 -3,-14 -5,-19 -2,-3 -4,-8 -5,-12l0 -19 19 0c0,0 0,0 0,0 0,1 1,2 1,4 1,0 1,1 1,2 0,0 1,0 1,0 0,1 0,1 0,1 1,1 1,2 2,2 0,1 1,1 1,2 1,0 1,0 1,0 0,0 0,0 0,0 1,0 1,0 1,0 1,1 2,1 2,1 1,0 1,0 1,0 1,0 3,-1 4,-2 -1,0 -2,1 -2,1 0,0 -1,0 -1,0 0,0 0,0 0,0 -1,0 -1,0 -1,-1 -1,0 -3,0 -4,-1 -1,-1 -1,-2 -2,-3 -1,-1 -1,-2 -2,-3 -1,-1 -1,-2 -1,-3l10 0c2,9 5,20 14,29 1,1 2,2 3,3l0 9c0,5 -4,9 -9,9z"/>
   <polygon class="fil9" points="182,149 173,149 173,99 182,99 182,118 182,141 "/>
   <polygon class="fil10" points="173,149 167,149 167,99 173,99 "/>
   <path class="fil11" d="M128 162c-1,0 -2,-1 -2,-2l0 -11 -6 0c-5,0 -9,-4 -9,-9l0 -32c0,-5 4,-9 9,-9l47 0 0 50 -15 0 -23 12c0,1 -1,1 -1,1z"/>
   <path class="fil7" d="M211 111c0,0 -1,0 -2,-1 0,0 0,0 -1,0 0,0 0,0 0,0 0,0 0,0 -1,0 0,-1 -1,-1 -1,-2 -1,0 -1,-1 -2,-2 0,0 0,0 0,-1 0,0 -1,0 -1,0 0,-1 0,-2 -1,-2 0,-2 -1,-3 -1,-4 0,0 0,0 0,0l2 0c0,1 0,2 1,3 1,1 1,2 2,3 1,1 1,2 2,3 1,1 3,1 4,1 0,1 0,1 1,1 0,0 0,0 0,0 0,0 1,0 1,0 0,0 1,-1 2,-1 -1,1 -3,2 -4,2 0,0 0,0 -1,0z"/>
   <path class="fil12" d="M217 93l-101 0c-5,0 -9,5 -9,10l0 32c0,5 4,9 9,9l6 0 0 11c0,1 2,2 3,1l23 -12 69 0c5,0 9,-4 9,-9l0 -32c0,-5 -4,-10 -9,-10z"/>
   <path class="fil13" d="M213 108l-96 0c-2,0 -3,-2 -3,-4 0,-2 1,-3 3,-3l96 0c1,0 3,1 3,3 0,2 -2,4 -3,4z"/>
   <path class="fil13" d="M197 134l-80 0c-2,0 -3,-2 -3,-4 0,-2 1,-3 3,-3l80 0c2,0 3,1 3,3 0,2 -1,4 -3,4z"/>
   <path class="fil13" d="M172 121l-55 0c-2,0 -3,-2 -3,-4 0,-2 1,-3 3,-3l55 0c2,0 3,1 3,3 0,2 -1,4 -3,4z"/>
   <path class="fil13" d="M214 121l-32 0c-2,0 -3,-2 -3,-4 0,-2 1,-3 3,-3l32 0c2,0 3,1 3,3 0,2 -1,4 -3,4z"/>
   <path class="fil14" d="M208 139c0,0 0,0 -1,0l-5 -5c0,-1 0,-1 0,-2 1,0 1,0 2,0l4 4 9 -8c0,0 1,0 1,0 1,0 1,1 0,1l-9 10c0,0 -1,0 -1,0z"/>
   <path class="fil14" d="M213 139c0,0 -1,0 -1,0l-5 -5c0,-1 0,-1 0,-2 0,0 1,0 2,0l4 4 8 -8c1,0 1,0 2,0 0,0 0,1 0,1l-9 10c-1,0 -1,0 -1,0z"/>
   <path class="fil6" d="M38 71l0 0c-2,-2 -7,-5 -13,-7 -3,-1 -7,-2 -11,-2 -3,0 -6,1 -8,2l0 -10c0,-5 4,-9 8,-9l24 0 0 26z"/>
   <path class="fil8" d="M32 82l-18 0c-4,0 -8,-4 -8,-8l0 -10c2,-1 5,-2 8,-2 4,0 8,1 11,2 6,2 11,5 13,7l0 0 0 0c-2,-2 -7,-5 -13,-7 2,4 5,10 7,18z"/>
   <path class="fil7" d="M38 82l-6 0c-2,-8 -5,-14 -7,-18 6,2 11,5 13,7l0 0 0 11z"/>
   <polygon class="fil9" points="47,82 38,82 38,71 38,45 47,45 "/>
   <polygon class="fil10" points="53,82 47,82 47,45 53,45 "/>
   <path class="fil11" d="M98 93c0,0 0,0 -1,0l-21 -11 -23 0 0 -37 52 0c5,0 9,4 9,9l0 20c0,4 -4,8 -9,8l-5 0 0 10c0,1 -1,1 -2,1z"/>
   <path class="fil15" d="M9 43l91 0c4,0 8,3 8,8l0 20c0,5 -4,9 -8,9l-6 0 0 9c0,2 -1,2 -2,2l-21 -11 -62 0c-5,0 -9,-4 -9,-9l0 -20c0,-5 4,-8 9,-8z"/>
   <path class="fil13" d="M79 70l-72 0c-2,0 -3,-1 -3,-3 0,-2 1,-3 3,-3l72 0c2,0 3,1 3,3 0,2 -1,3 -3,3z"/>
   <path class="fil13" d="M46 58l50 0c2,0 3,-1 3,-3 0,-1 -1,-3 -3,-3l-50 0c-1,0 -3,2 -3,3 0,2 2,3 3,3z"/>
   <path class="fil13" d="M8 58l29 0c1,0 3,-1 3,-3 0,-1 -2,-3 -3,-3l-29 0c-2,0 -3,2 -3,3 0,2 1,3 3,3z"/>
   <path class="fil6" d="M38 158c-1,0 -2,-1 -3,-1l0 -1c0,-2 1,-5 3,-6 0,0 0,0 0,0l0 8z"/>
   <path class="fil9" d="M47 162c-1,0 -2,-1 -3,-1 -2,-1 -4,-2 -6,-3l0 -8c2,0 3,1 5,1 1,0 2,-1 4,-1l0 12z"/>
   <path class="fil10" d="M53 167c-2,-2 -4,-3 -6,-5l0 -12c1,0 3,-1 4,-2l2 0 0 19z"/>
   <path class="fil11" d="M81 182c-1,0 -1,0 -1,-1l-12 -7 -10 0c-1,-2 -3,-5 -5,-7l0 -19 31 0c4,0 8,4 8,8l0 10c0,5 -4,8 -8,8l-1 0 0 6c0,1 -1,2 -2,2z"/>
   <path class="fil8" d="M43 151c-2,0 -3,-1 -5,-1 0,0 0,0 0,0 1,-1 3,-2 5,-2l8 0c-1,1 -3,2 -4,2 -2,0 -3,1 -4,1z"/>
   <path class="fil8" d="M58 174l-15 0c-3,0 -6,-2 -7,-4 1,-1 2,-1 3,-1 1,0 3,0 4,1 3,1 6,3 9,4l0 0c-2,-2 -5,-4 -8,-5 -3,-1 -4,-2 -6,-2 -1,0 -2,1 -3,1 0,-1 0,-1 0,-2l0 -9c1,0 2,1 3,1 2,1 4,2 6,3 1,0 2,1 3,1 2,2 4,3 6,5 2,2 4,5 5,7z"/>
   <path class="fil7" d="M52 174c-3,-1 -6,-3 -9,-4 -1,-1 -3,-1 -4,-1 -1,0 -2,0 -3,1 0,-1 -1,-1 -1,-2 1,0 2,-1 3,-1 2,0 3,1 6,2 3,1 6,3 8,5z"/>
   <path class="fil15" d="M80 146l-40 0c-5,0 -9,4 -9,8l0 10c0,4 4,8 9,8l25 0 11 7c1,1 3,0 3,-1l0 -6 1 0c5,0 8,-4 8,-8l0 -10c0,-4 -3,-8 -8,-8z"/>
   <path class="fil13" d="M49 159c0,3 -2,5 -5,5 -2,0 -4,-2 -4,-5 0,-2 2,-4 4,-4 3,0 5,2 5,4z"/>
   <path class="fil13" d="M64 159c0,3 -2,5 -4,5 -3,0 -5,-2 -5,-5 0,-2 2,-4 5,-4 2,0 4,2 4,4z"/>
   <path class="fil13" d="M80 159c0,3 -2,5 -4,5 -3,0 -5,-2 -5,-5 0,-2 2,-4 5,-4 2,0 4,2 4,4z"/>
   <path class="fil12" d="M65 216l69 0c3,0 5,-2 5,-5l0 0c0,-3 -2,-5 -5,-5l-69 0c-3,0 -5,2 -5,5l0 0c0,3 2,5 5,5z"/>
   <path class="fil16" d="M144 216l14 0c2,0 3,-2 3,-3l0 -8c0,-1 -1,-2 -3,-2l-14 0c-1,0 -2,1 -2,2l0 8c0,1 1,3 2,3z"/>
   <path class="fil3" d="M148 209c0,2 2,3 3,3 2,0 4,-1 4,-3 0,-2 -2,-3 -4,-3 -1,0 -3,1 -3,3zm-1 0c0,-3 2,-5 4,-5 3,0 5,2 5,5 0,3 -2,5 -5,5 -2,0 -4,-2 -4,-5z"/>
   <path class="fil17" d="M148 203l7 0 0 -1c0,0 -1,-1 -1,-1l-5 0c-1,0 -1,1 -1,1l0 1z"/>
   <path class="fil18" d="M159 180c0,8 -6,13 -13,13 -7,0 -13,-5 -13,-13 0,-7 6,-12 13,-12 7,0 13,5 13,12z"/>
   <path class="fil17" d="M156 186c-2,3 -6,6 -10,6 -4,0 -8,-3 -10,-6 1,-2 3,-4 5,-5 -1,-1 -1,-2 -1,-4 0,-3 2,-6 6,-6 3,0 6,3 6,6 0,2 -1,3 -2,4 2,1 4,3 6,5z"/>
   <path class="fil18" d="M88 106c0,8 -5,13 -13,13 -7,0 -12,-5 -12,-13 0,-7 5,-13 12,-13 8,0 13,6 13,13z"/>
   <path class="fil17" d="M85 112c-2,3 -5,6 -10,6 -4,0 -7,-3 -9,-6 1,-2 3,-4 5,-5 -1,-1 -2,-2 -2,-4 0,-3 3,-6 6,-6 4,0 6,3 6,6 0,2 0,3 -1,4 2,1 4,3 5,5z"/>
  </g>
 </g>
</svg>
